<?xml version="1.0" standalone="no"?>
<!DOCTYPE svg PUBLIC "-//W3C//DTD SVG 20010904//EN"
 "http://www.w3.org/TR/2001/REC-SVG-20010904/DTD/svg10.dtd">
<svg version="1.0" xmlns="http://www.w3.org/2000/svg"
 width="200.000000pt" height="200.000000pt" viewBox="0 0 200.000000 200.000000"
 preserveAspectRatio="xMidYMid meet">
<metadata>
Created by potrace 1.14, written by Peter Selinger 2001-2017
</metadata>
<g transform="translate(0.000000,200.000000) scale(0.100000,-0.100000)"
fill="#000000" stroke="none">
<path d="M535 1470 l7 -70 -27 0 c-76 0 -174 -61 -201 -127 -19 -45 -18 -137
3 -180 20 -43 89 -89 146 -98 83 -13 77 -3 77 -141 0 -102 -3 -124 -15 -124
-40 0 -118 24 -158 50 l-45 29 -26 -40 -26 -39 47 -30 c51 -33 130 -60 172
-60 48 0 54 -12 47 -79 l-7 -61 52 0 51 0 -7 70 -7 70 26 0 c43 0 127 37 163
72 65 63 79 186 30 260 -27 39 -87 75 -142 83 -80 13 -75 3 -75 137 l0 120 36
-7 c20 -3 61 -17 90 -30 l53 -23 20 34 c12 19 21 39 21 43 0 15 -118 62 -170
68 l-50 6 6 68 7 69 -53 0 -52 0 7 -70z m5 -275 c0 -127 -1 -129 -67 -104 -52
19 -73 48 -73 98 0 54 20 84 70 105 70 30 70 29 70 -99z m160 -241 c95 -38 93
-161 -3 -205 -77 -35 -77 -35 -77 101 0 136 0 136 80 104z"/>
<path d="M950 470 l0 -40 380 0 380 0 0 40 0 40 -380 0 -380 0 0 -40z"/>
</g>
</svg>
